<?xml version="1.0" encoding="UTF-8" standalone="no" ?>
<!DOCTYPE svg PUBLIC "-//W3C//DTD SVG 1.1//EN" "http://www.w3.org/Graphics/SVG/1.1/DTD/svg11.dtd">
<svg xmlns="http://www.w3.org/2000/svg" xmlns:xlink="http://www.w3.org/1999/xlink" version="1.1" width="81" height="81" viewBox="0 0 81 81" xml:space="preserve">
<desc>Created with Fabric.js 5.3.0</desc>
<defs>
</defs>
<g transform="matrix(1 0 0 1 40.5464733308 40.5452274889)" id="lVGhoueIh9esdC_Nqu6Dw"  >
<g style=""   >
		<g transform="matrix(0.1551137129 0 0 0.1551137129 -25.3894290742 14.2942819313)" id="BGvMusN3oszjV-Fm-x9AK"  >
<path style="stroke: rgb(255,232,0); stroke-width: 20; stroke-dasharray: none; stroke-linecap: butt; stroke-dashoffset: 0; stroke-linejoin: miter; stroke-miterlimit: 4; fill: rgb(0,0,0); fill-rule: evenodd; opacity: 1;"  transform=" translate(-86.3549282352, -342.156776837)" d="M 98.1 206.7 C 68.39999999999999 198 36.99999999999999 194.79999999999998 5.599999999999994 197.6 C -5.300000000000006 248.39999999999998 -0.6000000000000059 303 22.699999999999996 353.9 C 52.89999999999999 420.2 108.6 466.79999999999995 172.7 487.7 C 77.1 390 83.69999999999999 253.5 98.1 206.7 z" stroke-linecap="round" />
</g>
		<g transform="matrix(0.1551137129 0 0 0.1551137129 -1.862224748 16.0322831223)" id="8LdFroxtNPddrwWAiR8pO"  >
<path style="stroke: rgb(255,232,0); stroke-width: 20; stroke-dasharray: none; stroke-linecap: butt; stroke-dashoffset: 0; stroke-linejoin: miter; stroke-miterlimit: 4; fill: rgb(0,0,0); fill-rule: evenodd; opacity: 1;"  transform=" translate(-238.0320681333, -353.3614676347)" d="M 172.7 487.7 C 230.2 506.4 294.6 504.5 353.9 477.3 C 365.29999999999995 472.1 376.09999999999997 466.2 386.29999999999995 459.6 C 347.99999999999994 448.40000000000003 313.69999999999993 428.5 285.59999999999997 402.1 C 250.59999999999997 369.3 225.19999999999996 326.8 213.49999999999997 279.20000000000005 C 182.19999999999996 244.40000000000003 141.99999999999997 219.60000000000005 98.09999999999997 206.70000000000005 C 83.69999999999996 253.50000000000006 77.09999999999997 390.00000000000006 172.69999999999996 487.70000000000005 z" stroke-linecap="round" />
</g>
		<g transform="matrix(0.1551137129 0 0 0.1551137129 -13.19825568 -13.2549646537)" id="ZGdWx9m5DYEhx4GMVeg70"  >
<path style="stroke: rgb(255,232,0); stroke-width: 20; stroke-dasharray: none; stroke-linecap: butt; stroke-dashoffset: 0; stroke-linejoin: miter; stroke-miterlimit: 4; fill: rgb(0,0,0); fill-rule: evenodd; opacity: 1;"  transform=" translate(-164.95, -164.55)" d="M 5.6 197.6 C 37 194.79999999999998 68.39999999999999 198 98.1 206.7 C 142 219.6 182.2 244.39999999999998 213.5 279.2 C 258.7 252.7 297.6 210.29999999999998 324.3 161.29999999999998 C 281.3 110.39999999999998 196.60000000000002 55.69999999999999 100.20000000000002 49.89999999999998 C 51.000000000000014 86.69999999999997 18.100000000000023 139.59999999999997 5.600000000000023 197.59999999999997 z" stroke-linecap="round" />
</g>
		<g transform="matrix(0.1551137129 0 0 0.1551137129 22.1494737601 7.5845626695)" id="GxKt1bAngLrIadXRZvyHF"  >
<path style="stroke: rgb(255,232,0); stroke-width: 20; stroke-dasharray: none; stroke-linecap: butt; stroke-dashoffset: 0; stroke-linejoin: miter; stroke-miterlimit: 4; fill: rgb(0,0,0); fill-rule: evenodd; opacity: 1;"  transform=" translate(0.0000045335, 0)" d="M -107.23269 103.2 C -79.13269 129.6 -44.83269000000001 149.5 -6.532690000000002 160.7 C 95.66731 94.39999999999999 136.76731 -38.60000000000002 84.56730999999999 -152.8 C 83.36730999999999 -155.5 81.96731 -158.10000000000002 80.66730999999999 -160.70000000000002 C 62.667309999999986 -25.200000000000017 -15.73269000000002 49.19999999999999 -107.23269000000002 103.19999999999996 z" stroke-linecap="round" />
</g>
		<g transform="matrix(0.1551137129 0 0 0.1551137129 14.4972977518 -5.5303017531)" id="CKGvhIZtrC6RkvPKHYJac"  >
<path style="stroke: rgb(255,232,0); stroke-width: 20; stroke-dasharray: none; stroke-linecap: butt; stroke-dashoffset: 0; stroke-linejoin: miter; stroke-miterlimit: 4; fill: rgb(0,0,0); fill-rule: evenodd; opacity: 1;"  transform=" translate(0, 0)" d="M -19.2 -53.05 C -45.9 -4.049999999999997 -84.8 38.35000000000001 -130 64.85000000000001 C -118.3 112.45000000000002 -92.9 154.95 -57.900000000000006 187.75 C 33.599999999999994 133.75 112 59.349999999999994 130 -76.14999999999998 C 105 -126.24999999999997 65.3 -164.34999999999997 18.5 -187.74999999999997 C 17.7 -142.14999999999998 3.8000000000000007 -95.14999999999998 -19.200000000000003 -53.04999999999998 z" stroke-linecap="round" />
</g>
		<g transform="matrix(0.1549862442 0 0 0.1551137129 -2.9195232401 -26.2702860609)" id="7MafUmq73VRdi1BxMil9D"  >
<path style="stroke: rgb(255,232,0); stroke-width: 20; stroke-dasharray: none; stroke-linecap: butt; stroke-dashoffset: 0; stroke-linejoin: miter; stroke-miterlimit: 4; fill: rgb(0,0,0); fill-rule: evenodd; opacity: 1;"  transform=" translate(-231.1, -80.6417422008)" d="M 146.1 22.6 C 129.5 30.200000000000003 114.19999999999999 39.400000000000006 100.19999999999999 49.900000000000006 C 196.6 55.7 281.29999999999995 110.4 324.29999999999995 161.3 C 347.29999999999995 119.20000000000002 361.19999999999993 72.20000000000002 361.99999999999994 26.600000000000023 C 296.69999999999993 -6.09999999999998 217.69999999999993 -10.09999999999998 146.09999999999994 22.600000000000023 z" stroke-linecap="round" />
</g>
</g>
</g>
</svg>