<svg width="461" height="91" viewBox="0 0 461 91" fill="none" xmlns="http://www.w3.org/2000/svg">
<path d="M147.531 42.574C147.531 45.0073 147.288 47.2703 146.801 49.363C146.314 51.3583 145.609 53.378 144.684 55.422C143.905 57.0767 142.786 58.8043 141.326 60.605C139.963 62.2597 138.479 63.6467 136.873 64.766L150.232 79.366H142.202C141.18 79.366 140.109 79.1957 138.99 78.855C138.114 78.563 137.262 77.979 136.435 77.103L128.697 68.562C127.578 68.9027 126.312 69.146 124.901 69.292C123.149 69.4867 121.786 69.584 120.813 69.584C116.92 69.584 113.27 68.9027 109.863 67.54C106.554 66.226 103.731 64.3523 101.395 61.919C99.059 59.4857 97.234 56.6387 95.92 53.378C94.6547 50.2147 94.022 46.6133 94.022 42.574C94.022 38.5833 94.6547 35.0063 95.92 31.843C97.234 28.5337 99.059 25.6867 101.395 23.302C103.731 20.8687 106.554 18.995 109.863 17.681C113.27 16.3183 116.92 15.637 120.813 15.637C124.852 15.637 128.478 16.3183 131.69 17.681C135.097 19.141 137.919 21.0147 140.158 23.302C142.397 25.638 144.197 28.485 145.56 31.843C146.874 35.1037 147.531 38.6807 147.531 42.574ZM137.457 42.574C137.457 39.8973 137.068 37.318 136.289 34.836C135.559 32.5973 134.464 30.6507 133.004 28.996C131.544 27.39 129.792 26.149 127.748 25.273C125.801 24.4457 123.49 24.032 120.813 24.032C118.136 24.032 115.825 24.4457 113.878 25.273C111.737 26.1977 109.96 27.4387 108.549 28.996C107.089 30.602 105.97 32.5487 105.191 34.836C104.412 37.1233 104.023 39.7027 104.023 42.574C104.023 45.494 104.412 48.0977 105.191 50.385C105.97 52.6723 107.089 54.619 108.549 56.225C109.96 57.7823 111.737 59.0233 113.878 59.948C115.825 60.7753 118.136 61.189 120.813 61.189C123.49 61.189 125.801 60.7753 127.748 59.948C129.792 59.072 131.544 57.831 133.004 56.225C134.464 54.5703 135.559 52.6237 136.289 50.385C137.068 47.903 137.457 45.2993 137.457 42.574ZM207.019 20.528C207.019 21.7447 206.41 22.499 205.194 22.791L204.756 22.864C204.61 22.864 204.439 22.8883 204.245 22.937C204.099 22.9857 203.904 23.0343 203.661 23.083L201.471 23.448V47.83C201.471 50.9933 200.96 53.889 199.938 56.517C198.867 59.291 197.431 61.6027 195.631 63.452C193.733 65.35 191.421 66.8587 188.696 67.978C186.068 69.0487 183.026 69.584 179.571 69.584C176.115 69.584 173.074 69.0487 170.446 67.978C167.818 66.9073 165.53 65.3987 163.584 63.452C161.686 61.5053 160.226 59.1937 159.204 56.517C158.23 54.035 157.744 51.1393 157.744 47.83V23.448L155.554 23.083C155.31 23.0343 155.091 22.9857 154.897 22.937C154.751 22.8883 154.605 22.864 154.459 22.864L154.021 22.791C152.804 22.499 152.196 21.7447 152.196 20.528V16.221H173.366V20.528C173.366 21.7447 172.757 22.499 171.541 22.791L171.03 22.864C170.884 22.864 170.713 22.8883 170.519 22.937C170.324 22.9857 170.081 23.0343 169.789 23.083L167.526 23.448V47.757C167.526 49.947 167.793 51.772 168.329 53.232C168.815 54.7893 169.618 56.2007 170.738 57.466C171.662 58.5367 172.903 59.4127 174.461 60.094C175.872 60.7267 177.575 61.043 179.571 61.043C181.566 61.043 183.269 60.7267 184.681 60.094C186.335 59.364 187.601 58.488 188.477 57.466C189.401 56.3953 190.18 55.0083 190.813 53.305C191.397 51.4557 191.689 49.6307 191.689 47.83V23.448L189.426 23.083C189.134 23.0343 188.89 22.9857 188.696 22.937C188.501 22.8883 188.331 22.864 188.185 22.864L187.674 22.791C186.457 22.499 185.849 21.7447 185.849 20.528V16.221H207.019V20.528ZM228.207 22.864C228.061 22.864 227.891 22.8883 227.696 22.937C227.55 22.9857 227.355 23.0343 227.112 23.083L224.995 23.448V61.773L227.112 62.138C227.355 62.1867 227.55 62.2353 227.696 62.284C227.891 62.3327 228.061 62.357 228.207 62.357L228.645 62.43C229.862 62.722 230.47 63.4763 230.47 64.693V69H209.592V64.693C209.592 63.4763 210.2 62.722 211.417 62.43L211.855 62.357L212.95 62.138L215.14 61.773V23.448L212.95 23.083C212.707 23.0343 212.488 22.9857 212.293 22.937C212.147 22.8883 212.001 22.864 211.855 22.864L211.417 22.791C210.2 22.499 209.592 21.7447 209.592 20.528V16.221H230.47V20.528C230.47 21.7447 229.862 22.499 228.645 22.791L228.207 22.864ZM288.955 20.528C288.955 21.7447 288.347 22.499 287.13 22.791L286.692 22.864C286.546 22.864 286.376 22.8883 286.181 22.937C286.035 22.9857 285.841 23.0343 285.597 23.083L283.48 23.448V69H278.37C277.689 69 277.056 68.8783 276.472 68.635C275.986 68.4403 275.475 68.0023 274.939 67.321L247.345 32.208C247.443 33.2787 247.491 34.033 247.491 34.471L247.564 36.588V61.773L252.309 62.43C253.526 62.722 254.134 63.4763 254.134 64.693V69H233.402V64.693C233.402 63.4763 234.011 62.722 235.227 62.43L235.665 62.357L236.76 62.138L238.95 61.773V23.448L236.76 23.083C236.517 23.0343 236.298 22.9857 236.103 22.937C235.957 22.8883 235.811 22.864 235.665 22.864L235.227 22.791C234.011 22.499 233.402 21.7447 233.402 20.528V16.221H244.06L245.155 16.294C245.496 16.294 245.764 16.367 245.958 16.513C246.153 16.5617 246.372 16.7077 246.615 16.951L247.345 17.827L275.085 53.086L274.866 50.604C274.818 50.0687 274.793 49.29 274.793 48.268V23.448L270.048 22.791C268.832 22.499 268.223 21.7447 268.223 20.528V16.221H288.955V20.528ZM310.118 22.864C309.972 22.864 309.802 22.8883 309.607 22.937C309.461 22.9857 309.266 23.0343 309.023 23.083L306.906 23.448V61.773L309.023 62.138C309.266 62.1867 309.461 62.2353 309.607 62.284C309.802 62.3327 309.972 62.357 310.118 62.357L310.556 62.43C311.773 62.722 312.381 63.4763 312.381 64.693V69H291.503V64.693C291.503 63.4763 292.111 62.722 293.328 62.43L293.766 62.357L294.861 62.138L297.051 61.773V23.448L294.861 23.083C294.618 23.0343 294.399 22.9857 294.204 22.937C294.058 22.8883 293.912 22.864 293.766 22.864L293.328 22.791C292.111 22.499 291.503 21.7447 291.503 20.528V16.221H312.381V20.528C312.381 21.7447 311.773 22.499 310.556 22.791L310.118 22.864Z" fill="#4876EE"/>
<path d="M353.785 41.844C354.466 44.326 354.807 47.027 354.807 49.947C354.807 52.575 354.417 55.1787 353.639 57.758C352.957 60.094 351.887 62.1623 350.427 63.963C349.113 65.6177 347.434 66.9803 345.39 68.051C343.492 69.0243 341.253 69.511 338.674 69.511C336.532 69.511 334.756 69.1947 333.345 68.562C331.739 67.832 330.4 66.9317 329.33 65.861V73.964C329.816 74.0613 330.23 74.1343 330.571 74.183C330.96 74.2803 331.276 74.3533 331.52 74.402C332.298 74.4993 332.663 74.548 332.615 74.548L333.053 74.621C334.269 74.913 334.878 75.6917 334.878 76.957V81.191H314.803V76.957C314.803 75.6917 315.411 74.913 316.628 74.621L317.066 74.548L318.161 74.402L320.351 73.964V38.778L318.161 38.413C317.917 38.3643 317.698 38.3157 317.504 38.267C317.358 38.2183 317.212 38.194 317.066 38.194L316.628 38.121C315.411 37.829 314.803 37.0747 314.803 35.858V31.551H325.826C326.41 31.551 326.921 31.697 327.359 31.989C327.748 32.2323 328.016 32.646 328.162 33.23L328.892 36.661C330.352 35.0063 332.079 33.6193 334.075 32.5C336.021 31.4293 338.309 30.894 340.937 30.894C343.078 30.894 344.952 31.3077 346.558 32.135C348.261 33.011 349.721 34.252 350.938 35.858C352.154 37.4153 353.103 39.4107 353.785 41.844ZM344.879 55.641C345.268 54.2297 345.463 52.356 345.463 50.02C345.463 47.684 345.292 45.8103 344.952 44.399C344.611 42.939 344.1 41.7223 343.419 40.749C342.737 39.7757 341.934 39.07 341.01 38.632C340.085 38.194 339.039 37.975 337.871 37.975C335.924 37.975 334.318 38.3643 333.053 39.143C331.69 39.9703 330.449 41.0897 329.33 42.501V59.291C330.303 60.5077 331.422 61.3837 332.688 61.919C333.807 62.4057 335.097 62.649 336.557 62.649C338.017 62.649 339.258 62.4057 340.28 61.919C341.253 61.481 342.178 60.7023 343.054 59.583C343.881 58.4637 344.489 57.1497 344.879 55.641ZM375.695 30.967C378.372 30.967 380.903 31.4293 383.287 32.354C385.623 33.2787 387.57 34.544 389.127 36.15C390.685 37.756 391.901 39.7757 392.777 42.209C393.653 44.5937 394.091 47.246 394.091 50.166C394.091 53.086 393.653 55.7627 392.777 58.196C391.853 60.678 390.636 62.722 389.127 64.328C387.521 66.0313 385.575 67.321 383.287 68.197C381.049 69.073 378.518 69.511 375.695 69.511C372.873 69.511 370.318 69.073 368.03 68.197C365.743 67.321 363.796 66.0313 362.19 64.328C360.487 62.576 359.222 60.532 358.394 58.196C357.518 55.7627 357.08 53.086 357.08 50.166C357.08 47.246 357.518 44.5937 358.394 42.209C359.222 39.9703 360.487 37.9507 362.19 36.15C363.748 34.544 365.694 33.2787 368.03 32.354C370.415 31.4293 372.97 30.967 375.695 30.967ZM375.695 62.576C378.81 62.576 381.097 61.5297 382.557 59.437C384.066 57.247 384.82 54.181 384.82 50.239C384.82 46.297 384.066 43.231 382.557 41.041C381.097 38.8997 378.81 37.829 375.695 37.829C372.581 37.829 370.245 38.8997 368.687 41.041C367.13 43.1823 366.351 46.2727 366.351 50.312C366.351 54.254 367.13 57.2957 368.687 59.437C370.196 61.5297 372.532 62.576 375.695 62.576ZM414.903 62.43C416.119 62.722 416.728 63.4763 416.728 64.693V69H396.653V64.693C396.653 63.4763 397.261 62.722 398.478 62.43L398.916 62.357L400.011 62.138L402.201 61.773V21.988L400.011 21.623C399.767 21.5743 399.548 21.5257 399.354 21.477C399.208 21.4283 399.062 21.404 398.916 21.404L398.478 21.331C397.261 21.039 396.653 20.2847 396.653 19.068V14.761H411.18V61.773L413.37 62.138L414.465 62.357L414.903 62.43ZM437.646 30.967C440.322 30.967 442.853 31.4293 445.238 32.354C447.574 33.2787 449.52 34.544 451.078 36.15C452.635 37.756 453.852 39.7757 454.728 42.209C455.604 44.5937 456.042 47.246 456.042 50.166C456.042 53.086 455.604 55.7627 454.728 58.196C453.803 60.678 452.586 62.722 451.078 64.328C449.472 66.0313 447.525 67.321 445.238 68.197C442.999 69.073 440.468 69.511 437.646 69.511C434.823 69.511 432.268 69.073 429.981 68.197C427.693 67.321 425.747 66.0313 424.141 64.328C422.437 62.576 421.172 60.532 420.345 58.196C419.469 55.7627 419.031 53.086 419.031 50.166C419.031 47.246 419.469 44.5937 420.345 42.209C421.172 39.9703 422.437 37.9507 424.141 36.15C425.698 34.544 427.645 33.2787 429.981 32.354C432.365 31.4293 434.92 30.967 437.646 30.967ZM437.646 62.576C440.76 62.576 443.048 61.5297 444.508 59.437C446.016 57.247 446.771 54.181 446.771 50.239C446.771 46.297 446.016 43.231 444.508 41.041C443.048 38.8997 440.76 37.829 437.646 37.829C434.531 37.829 432.195 38.8997 430.638 41.041C429.08 43.1823 428.302 46.2727 428.302 50.312C428.302 54.254 429.08 57.2957 430.638 59.437C432.146 61.5297 434.482 62.576 437.646 62.576Z" fill="#00D3AB"/>
<path fill-rule="evenodd" clip-rule="evenodd" d="M18.4242 35.5052C13.754 34.1372 8.81653 33.634 3.87902 34.0743C2.16505 42.0624 2.9041 50.648 6.56792 58.6518C11.3167 69.0771 20.0753 76.4048 30.1547 79.6912C15.1221 64.3283 16.1599 42.8643 18.4242 35.5052Z" fill="#4876EE" stroke="#00D3AB" stroke-width="4" stroke-linecap="round" stroke-linejoin="round"/>
<path fill-rule="evenodd" clip-rule="evenodd" d="M3.87906 34.0743C8.81656 33.634 13.7541 34.1372 18.4243 35.5052C25.3273 37.5337 31.6486 41.4334 36.5704 46.9055C43.6779 42.7385 49.7947 36.0713 53.9931 28.3663C47.2316 20.3625 33.9129 11.7612 18.7545 10.8492C11.018 16.6358 5.84463 24.9541 3.87906 34.0743Z" fill="#4876EE" stroke="#00D3AB" stroke-width="4" stroke-linecap="round" stroke-linejoin="round"/>
<path fill-rule="evenodd" clip-rule="evenodd" d="M30.1547 79.6912C39.1964 82.6317 49.323 82.3329 58.6476 78.0558C60.4402 77.2381 62.1384 76.3104 63.7424 75.2726C57.7199 73.5114 52.3263 70.3822 47.9077 66.231C42.4042 61.0733 38.4101 54.3904 36.5704 46.9055C31.6486 41.4334 25.3273 37.5337 18.4242 35.5052C16.1599 42.8643 15.1221 64.3283 30.1547 79.6912Z" fill="#4876EE" stroke="#00D3AB" stroke-width="4" stroke-linecap="round" stroke-linejoin="round"/>
<path fill-rule="evenodd" clip-rule="evenodd" d="M47.9077 66.231C52.3263 70.3822 57.7198 73.5114 63.7423 75.2726C79.8128 64.8472 86.2756 43.9336 78.0674 25.9762C77.8787 25.5516 77.6585 25.1428 77.4541 24.7339C74.6237 46.0407 62.2957 57.7397 47.9077 66.231Z" fill="#4876EE" stroke="#00D3AB" stroke-width="4" stroke-linecap="round" stroke-linejoin="round"/>
<path fill-rule="evenodd" clip-rule="evenodd" d="M53.9931 28.3663C49.7946 36.0713 43.6778 42.7385 36.5703 46.9055C38.4101 54.3904 42.4041 61.0733 47.9077 66.231C62.2957 57.7397 74.6237 46.0407 77.4541 24.7339C73.523 16.8559 67.2803 10.8649 59.9212 7.18533C59.7955 14.3557 57.6097 21.7463 53.9931 28.3663Z" fill="#4876EE" stroke="#00D3AB" stroke-width="4" stroke-linecap="round" stroke-linejoin="round"/>
<path fill-rule="evenodd" clip-rule="evenodd" d="M26.0012 6.55634C23.3931 7.75141 20.9892 9.19807 18.7896 10.8491C33.9356 11.7612 47.2433 20.3625 53.9993 28.3663C57.613 21.7462 59.7969 14.3557 59.9226 7.18532C49.6629 2.0434 37.2507 1.41442 26.0012 6.55634Z" fill="#4876EE" stroke="#00D3AB" stroke-width="4" stroke-linecap="round" stroke-linejoin="round"/>
<circle cx="42.5" cy="42.5" r="40" stroke="white" stroke-width="5"/>
</svg>
