<?xml version="1.0" encoding="utf-8"?>
<!-- Generator: Adobe Illustrator 27.0.0, SVG Export Plug-In . SVG Version: 6.00 Build 0)  -->
<svg version="1.1" id="Capa_1" xmlns="http://www.w3.org/2000/svg" xmlns:xlink="http://www.w3.org/1999/xlink" x="0px" y="0px"
	 viewBox="0 0 426.2 82" style="enable-background:new 0 0 426.2 82;" xml:space="preserve">
<style type="text/css">
	.st0{fill-rule:evenodd;clip-rule:evenodd;}
	.st1{fill:#FFE800;}
	.st2{enable-background:new    ;}
</style>
<g>
	<g id="BGvMusN3oszjV-Fm-x9AK" transform="matrix(0.1035344479 0 0 0.1035344479 164.075241958 17.2204362447)">
		<g>
			<path class="st0" d="M2136.9,399.8c-1,0-2.1-0.2-3.1-0.5c-69.1-22.5-126-73.3-156-139.2c-23.4-51.3-29.6-107.5-17.8-162.6
				c0.9-4.3,4.5-7.5,8.9-7.9c7.6-0.7,15.4-1,23.1-1c24.8,0,49.4,3.5,73.1,10.5c2.6,0.8,4.7,2.5,6,4.9c1.3,2.4,1.5,5.1,0.7,7.7
				c-15.1,49-17.3,179.7,72.2,271.1c3.2,3.3,3.8,8.4,1.3,12.3C2143.5,398.1,2140.3,399.8,2136.9,399.8z"/>
			<path class="st1" d="M1992,98.7c23.9,0,47.6,3.4,70.3,10.1c-14.4,46.8-21,183.3,74.6,281c-64.1-20.9-119.8-67.5-150-133.8
				c-23.3-50.9-28-105.5-17.1-156.3C1977.2,99.1,1984.6,98.7,1992,98.7 M1992,78.7c-8,0-16,0.4-24,1.1c-8.7,0.8-15.9,7.2-17.8,15.7
				c-12.3,57.2-5.9,115.6,18.5,168.8c31.2,68.4,90.2,121.1,162,144.5c2,0.7,4.1,1,6.2,1c6.8,0,13.3-3.5,17-9.5
				c4.9-7.8,3.7-18-2.7-24.5c-86.3-88.2-84.3-214-69.8-261.1c1.6-5.1,1-10.6-1.5-15.4c-2.5-4.7-6.9-8.2-12-9.7
				C2043.2,82.4,2017.7,78.7,1992,78.7L1992,78.7z"/>
		</g>
	</g>
	<g id="_x37_MafUmq73VRdi1BxMil9D" transform="matrix(0.1034493658 0 0 0.1035344479 179.0733311143 -9.8553784839)">
		<g>
			<path class="st0" d="M2145.4,334.9c-2.9,0-5.7-1.3-7.6-3.5c-42-49.7-125.4-102.4-217.1-107.9c-4.2-0.3-7.8-3.1-9-7.1
				c-1.2-4,0.2-8.4,3.6-10.9c14.8-11.1,30.9-20.7,47.7-28.4c34.2-15.6,70.4-23.5,107.7-23.5c40.3,0,80.7,9.6,116.8,27.7
				c3.4,1.7,5.6,5.3,5.5,9.1c-0.8,46-14.3,94.2-38.9,139.3c-1.6,2.9-4.5,4.8-7.8,5.2C2146.1,334.9,2145.8,334.9,2145.4,334.9z"/>
			<path class="st1" d="M2070.8,163.6c39.2,0,77.7,9.3,112.3,26.6c-0.8,45.6-14.7,92.6-37.7,134.7c-43-50.9-127.7-105.6-224.1-111.4
				c14-10.5,29.3-19.7,45.9-27.3C2000.9,170.9,2036.1,163.6,2070.8,163.6 M2070.8,143.6c-38.8,0-76.4,8.2-111.9,24.4
				c-17.5,8-34.2,17.9-49.6,29.5c-6.7,5-9.6,13.7-7.1,21.7s9.6,13.7,18,14.2c88.7,5.3,169.4,56.3,210,104.3
				c3.8,4.5,9.4,7.1,15.3,7.1c0.7,0,1.3,0,2-0.1c6.6-0.7,12.4-4.5,15.5-10.3c25.4-46.5,39.3-96.3,40.1-143.9
				c0.1-7.7-4.2-14.8-11-18.2C2154.6,153.6,2112.6,143.6,2070.8,143.6L2070.8,143.6z"/>
		</g>
	</g>
	<g id="_x38_LdFroxtNPddrwWAiR8pO" transform="matrix(0.1035344479 0 0 0.1035344479 179.7790508964 18.3805077203)">
		<g>
			<path class="st0" d="M2062.7,400.9c-27.3,0-54.5-4.3-80.6-12.8c-1.5-0.5-2.9-1.4-4.1-2.5c-103.4-105.7-89.9-249.1-77-290.9
				c1.3-4.3,5.3-7.1,9.6-7.1c0.9,0,1.9,0.1,2.8,0.4c46.4,13.6,87.9,39.7,120,75.4c1.1,1.2,1.9,2.7,2.3,4.3
				c11.1,45.1,35,85.9,69.2,118c27.2,25.6,60.7,44.7,96.7,55.2c3.8,1.1,6.5,4.3,7.1,8.2c0.6,3.9-1.2,7.7-4.5,9.8
				c-10.6,6.8-21.9,13-33.7,18.4C2136.4,393,2100.1,400.9,2062.7,400.9C2062.7,400.9,2062.7,400.9,2062.7,400.9z"/>
			<path class="st1" d="M1910.6,97.6c43.9,12.9,84.1,37.7,115.4,72.5c11.7,47.6,37.1,90.1,72.1,122.9
				c28.1,26.4,62.4,46.3,100.7,57.5c-10.2,6.6-21,12.5-32.4,17.7c-33.7,15.4-68.9,22.7-103.7,22.7c-26.5,0-52.6-4.2-77.5-12.3
				C1889.6,280.9,1896.2,144.4,1910.6,97.6 M1910.6,77.6c-8.6,0-16.5,5.5-19.1,14.1c-13.3,43.4-27.4,191.7,79.4,300.9
				c2.3,2.3,5,4,8.1,5c27.1,8.8,55.3,13.3,83.7,13.3c38.8,0,76.5-8.3,112-24.5c12.2-5.6,24-12,34.9-19.1c6.6-4.2,10.1-11.9,8.9-19.7
				c-1.1-7.7-6.7-14.1-14.2-16.3c-34.5-10.1-66.5-28.4-92.6-52.9c-32.8-30.7-55.7-69.8-66.4-113.1c-0.8-3.2-2.3-6.2-4.6-8.6
				c-33.3-37.1-76.4-64.2-124.6-78.3C1914.4,77.9,1912.5,77.6,1910.6,77.6L1910.6,77.6z"/>
		</g>
	</g>
	<g id="ZGdWx9m5DYEhx4GMVeg70" transform="matrix(0.1035344479 0 0 0.1035344479 172.2125393208 -1.1679833384)">
		<g>
			<path class="st0" d="M2099.1,368.9c-2.8,0-5.5-1.1-7.4-3.3c-29.6-32.9-67.9-57-110.8-69.6c-21.9-6.4-44.6-9.7-67.5-9.7
				c-7.1,0-14.2,0.3-21.3,0.9c-0.3,0-0.6,0-0.9,0c-2.8,0-5.6-1.2-7.5-3.4c-2.1-2.4-3-5.6-2.3-8.7c13.3-61.5,48.2-116.1,98.4-153.6
				c1.7-1.3,3.8-2,6-2c0.2,0,0.4,0,0.6,0c104.2,6.3,189.7,65.8,231.1,114.9c2.7,3.2,3.1,7.6,1.1,11.2
				c-28.2,51.7-68.9,95-114.5,121.7C2102.6,368.5,2100.8,368.9,2099.1,368.9z"/>
			<path class="st1" d="M1985.8,129.6c96.4,5.8,181.1,60.5,224.1,111.4c-26.7,49-65.6,91.4-110.8,117.9
				c-31.3-34.8-71.5-59.6-115.4-72.5c-22.7-6.7-46.4-10.1-70.3-10.1c-7.4,0-14.8,0.3-22.2,1C1903.7,219.3,1936.6,166.4,1985.8,129.6
				 M1985.8,109.6c-4.3,0-8.5,1.4-12,4c-52.1,39-88.4,95.6-102.2,159.5c-1.3,6.2,0.4,12.7,4.6,17.5c3.8,4.3,9.3,6.8,15,6.8
				c0.6,0,1.2,0,1.8-0.1c6.8-0.6,13.6-0.9,20.4-0.9c21.9,0,43.7,3.1,64.7,9.3c41.1,12.1,77.8,35.1,106.2,66.7
				c3.9,4.3,9.4,6.6,14.9,6.6c3.5,0,7-0.9,10.1-2.7c47.2-27.7,89.2-72.3,118.2-125.6c3.9-7.2,3-16.2-2.3-22.5
				c-42.8-50.6-130.8-112-238.2-118.5C1986.6,109.6,1986.2,109.6,1985.8,109.6L1985.8,109.6z"/>
		</g>
	</g>
	<g id="GxKt1bAngLrIadXRZvyHF" transform="matrix(0.1035344479 0 0 0.1035344479 195.8062473465 12.7418697369)">
		<g>
			<path class="st0" d="M2044,415c-0.9,0-1.9-0.1-2.8-0.4c-39-11.4-75.2-32.1-104.7-59.8c-2.3-2.2-3.4-5.3-3.1-8.4
				c0.3-3.1,2.2-5.9,4.9-7.5c75.3-44.4,164.1-113.7,183.1-256.6c0.6-4.4,3.9-7.8,8.3-8.5c0.6-0.1,1.1-0.1,1.7-0.1
				c3.7,0,7.2,2.1,8.9,5.5l1.1,2.2c1,2,2.1,4.1,3,6.1c53.1,116.2,12.4,256.4-94.8,325.9C2047.8,414.4,2045.9,415,2044,415z"/>
			<path class="st1" d="M2131.2,83.6c1.3,2.6,2.7,5.2,3.9,7.9c52.2,114.2,11.1,247.2-91.1,313.5c-38.3-11.2-72.6-31.1-100.7-57.5
				C2034.8,293.5,2113.2,219.1,2131.2,83.6 M2131.2,63.6c-1.1,0-2.2,0.1-3.3,0.3c-8.7,1.4-15.4,8.4-16.5,17.1
				c-18.4,138.6-104.9,206-178.2,249.3c-5.4,3.2-9,8.8-9.7,15c-0.7,6.3,1.6,12.5,6.2,16.8c30.6,28.8,68.3,50.3,108.8,62.1
				c1.8,0.5,3.7,0.8,5.6,0.8c3.8,0,7.6-1.1,10.9-3.2c111.3-72.2,153.6-217.8,98.4-338.6c-0.9-2.1-2-4.3-3.2-6.5l-1.1-2.1
				C2145.7,67.8,2138.7,63.6,2131.2,63.6L2131.2,63.6z"/>
		</g>
	</g>
	<g id="CKGvhIZtrC6RkvPKHYJac" transform="matrix(0.1035344479 0 0 0.1035344479 190.6986149933 3.988032167)">
		<g>
			<path class="st0" d="M1992.7,442c-2.5,0-4.9-0.9-6.8-2.7c-37-34.7-62.9-78.9-75-127.8c-1.1-4.3,0.8-8.8,4.7-11
				c42.6-25,80.6-65.5,107.1-114.1c23.1-42.3,35.7-87.3,36.5-130.1c0.1-3.4,1.9-6.6,4.8-8.4c1.6-1,3.4-1.4,5.2-1.4
				c1.5,0,3.1,0.3,4.5,1.1c50.6,25.3,90.7,65.4,116,116.1c0.9,1.8,1.2,3.8,1,5.8c-20.1,151.4-113.6,224.5-192.7,271.2
				C1996.2,441.6,1994.4,442,1992.7,442z"/>
			<path class="st1" d="M2069.1,56.5c46.8,23.4,86.5,61.5,111.5,111.6c-18,135.5-96.4,209.9-187.9,263.9
				c-35-32.8-60.4-75.3-72.1-122.9c45.2-26.5,84.1-68.9,110.8-117.9C2054.4,149.1,2068.3,102.1,2069.1,56.5 M2069.1,36.5
				c-3.6,0-7.2,1-10.4,2.9c-5.9,3.6-9.5,9.9-9.6,16.8c-0.7,41.2-12.9,84.6-35.3,125.5c-25.6,47-62.3,86.2-103.4,110.2
				c-7.6,4.5-11.4,13.4-9.3,22c12.5,50.8,39.4,96.7,77.8,132.7c3.8,3.6,8.7,5.4,13.7,5.4c3.5,0,7-0.9,10.2-2.8
				c81.1-47.9,176.9-122.8,197.6-278.5c0.5-4-0.1-8-1.9-11.6c-26.2-52.6-67.9-94.3-120.5-120.6C2075.2,37.2,2072.1,36.5,2069.1,36.5
				L2069.1,36.5z"/>
		</g>
	</g>
</g>
<g class="st2">
	<path class="st1" d="M214.5,74.9v-6.6h6.1V34l-6.9-2.3l2.2-6.7l10.3,3.5c1.6-1.1,3.3-2,5.1-2.7c1.8-0.7,3.6-1,5.2-1
		c5.1,0,9.1,1.5,12,4.6c2.9,3.1,4.3,7.3,4.3,12.7c0,3.6-0.7,6.8-2.1,9.6c-1.4,2.7-3.4,4.8-6,6.3c-2.6,1.5-5.6,2.2-9.1,2.2
		c-2.5,0-4.7-0.3-6.7-0.9v8.9h6.1v6.6H214.5z M235.6,53.7c2.8,0,4.9-1,6.5-3c1.5-2,2.3-4.8,2.3-8.4c0-3.4-0.7-6-2.1-7.9
		c-1.4-1.8-3.5-2.8-6.1-2.8c-1.4,0-2.7,0.2-4,0.7c-1.3,0.5-2.4,1.1-3.3,1.9v18.1c0.8,0.4,1.8,0.7,3.1,0.9
		C233.1,53.6,234.4,53.7,235.6,53.7z"/>
	<path class="st1" d="M275.9,24.8c3.6,0,6.8,0.7,9.3,2.1c2.6,1.4,4.5,3.4,5.9,6.1c1.4,2.7,2,5.8,2,9.5c0,5.5-1.5,9.9-4.6,13
		c-3,3.1-7.3,4.7-12.7,4.7c-3.6,0-6.6-0.7-9.2-2.1c-2.6-1.4-4.5-3.4-5.8-6.1c-1.3-2.7-2-5.8-2-9.5c0-3.7,0.7-6.9,2-9.5
		c1.3-2.7,3.3-4.7,5.8-6.1C269.3,25.5,272.4,24.8,275.9,24.8z M275.9,31.6c-2.9,0-5.1,0.9-6.6,2.8c-1.5,1.9-2.2,4.6-2.2,8.1
		c0,3.6,0.7,6.3,2.2,8.2c1.5,1.9,3.7,2.8,6.6,2.8c3,0,5.3-0.9,6.8-2.8c1.5-1.9,2.3-4.6,2.3-8.2c0-3.6-0.8-6.3-2.3-8.1
		C281.2,32.6,278.9,31.6,275.9,31.6z"/>
	<path class="st1" d="M298.4,58.9v-6.6h6.1V18.6l-7-2.1l2-6.7l13.3,4.2v38.3h6.1v6.6H298.4z"/>
	<path class="st1" d="M340.9,24.8c3.6,0,6.8,0.7,9.3,2.1c2.6,1.4,4.5,3.4,5.9,6.1c1.4,2.7,2,5.8,2,9.5c0,5.5-1.5,9.9-4.6,13
		c-3,3.1-7.3,4.7-12.7,4.7c-3.6,0-6.6-0.7-9.2-2.1c-2.6-1.4-4.5-3.4-5.8-6.1c-1.3-2.7-2-5.8-2-9.5c0-3.7,0.7-6.9,2-9.5
		c1.3-2.7,3.3-4.7,5.8-6.1C334.3,25.5,337.3,24.8,340.9,24.8z M340.9,31.6c-2.9,0-5.1,0.9-6.6,2.8c-1.5,1.9-2.2,4.6-2.2,8.1
		c0,3.6,0.7,6.3,2.2,8.2c1.5,1.9,3.7,2.8,6.6,2.8c3,0,5.3-0.9,6.8-2.8c1.5-1.9,2.3-4.6,2.3-8.2c0-3.6-0.8-6.3-2.3-8.1
		C346.2,32.6,343.9,31.6,340.9,31.6z"/>
</g>
<g class="st2">
	<path d="M36.3,58.1c-3,1.5-6.4,2.2-10.1,2.2c-4.1,0-7.8-0.9-11-2.7s-5.7-4.4-7.5-7.8C5.9,46.3,5,42.2,5,37.3
		c0-4.9,0.9-9.1,2.7-12.5c1.8-3.4,4.3-6,7.5-7.8c3.2-1.8,6.8-2.7,11-2.7c4.2,0,8,0.9,11.2,2.7c3.2,1.8,5.7,4.4,7.5,7.8
		c1.8,3.4,2.7,7.6,2.7,12.5c0,3.6-0.5,6.7-1.5,9.5c-1,2.8-2.4,5.2-4.2,7.2l8.7,5l-5.4,6.6L36.3,58.1z M26.3,21.5
		c-4.1,0-7.3,1.4-9.3,4.1c-2.1,2.7-3.1,6.6-3.1,11.8c0,5.2,1,9.1,3.1,11.8c2.1,2.7,5.2,4.1,9.3,4.1c4.2,0,7.3-1.4,9.4-4.1
		c2.1-2.7,3.1-6.7,3.1-11.8c0-5.2-1-9.1-3.1-11.8C33.6,22.8,30.4,21.5,26.3,21.5z"/>
	<path d="M93.9,43.3c0,5.5-1.4,9.6-4.2,12.6c-2.8,2.9-7,4.4-12.6,4.4c-5.6,0-9.9-1.5-12.7-4.4c-2.8-2.9-4.2-7.1-4.2-12.6V23.2H54
		v-7.4h18.9v7.4h-4.2v21.5c0,3.1,0.7,5.3,2.2,6.6c1.5,1.3,3.5,2,6.2,2c2.7,0,4.7-0.7,6.2-2.2c1.4-1.5,2.2-3.8,2.2-7.1V23.2h-4.2
		v-7.4h18.9v7.4h-6.3V43.3z"/>
	<path d="M105.2,15.9h22.3v7.4h-6.9v28.3h6.9v7.4h-22.4v-7.4h7.1V23.2h-7V15.9z"/>
	<path d="M133.6,15.9h18.9l15.5,30.9V23.2h-5.6v-7.4h20.1v7.4h-6.9v35.6h-9.8l-18.5-35.7l0.1,28.3h6.1v7.4h-20.1v-7.4h6.4V23.2h-6.3
		V15.9z"/>
	<path d="M187.7,15.9H210v7.4h-6.9v28.3h6.9v7.4h-22.4v-7.4h7.1V23.2h-7V15.9z"/>
</g>
</svg>
