<svg xmlns="http://www.w3.org/2000/svg" xmlns:xlink="http://www.w3.org/1999/xlink" xmlns:serif="http://www.serif.com/" width="100%" height="100%" viewBox="0 0 1080 2227" xml:space="preserve" style="fill-rule:evenodd;clip-rule:evenodd;stroke-linejoin:round;stroke-miterlimit:2;">    <g transform="matrix(1,0,0,1,-2330.75,0)">        <g transform="matrix(1,0,0,1,2330.75,0)">            <rect id="Dark-Background-ver2" serif:id="Dark Background ver2" x="0" y="0" width="1080" height="2227" style="fill:none;"></rect>            <clipPath id="_clip1">                <rect id="Dark-Background-ver21" serif:id="Dark Background ver2" x="0" y="0" width="1080" height="2227"></rect>            </clipPath>            <g clip-path="url(#_clip1)">                <g transform="matrix(0.5625,0,0,2.06178,0,0)">                    <g transform="matrix(1.69201,0,0,1.22116,27.0904,39.2158)">                        <rect x="-34.756" y="-39.434" width="1172.24" height="871.465" style="fill:rgb(19,69,118);"></rect>                    </g>                    <g transform="matrix(1.77778,0,0,1.47725,0,-2413.78)">                        <path d="M-17.841,1716.86C15.681,1713.88 50.655,1711.7 87.173,1710.47C430.128,1698.9 667.612,1798.25 956.889,1816.75C1003.84,1819.75 1050.83,1822.66 1097.84,1825.27L1097.84,2225.89L-17.841,2227.07L-17.841,1716.86Z" style="fill:rgb(20,62,109);"></path>                    </g>                    <g transform="matrix(-1.77778,0,0,1.67395,1920,-2274.48)">                        <path d="M-17.841,1716.86C15.681,1713.88 50.655,1711.7 87.173,1710.47C430.128,1698.9 667.612,1798.25 956.889,1816.75C1003.84,1819.75 1050.83,1822.66 1097.84,1825.27L1097.84,2036.34L-17.841,2016.49L-17.841,1716.86Z" style="fill:rgb(14,45,87);"></path>                    </g>                </g>            </g>        </g>    </g></svg>